PathFileType  4	(X/Y/Z) C:\Users\antoi\Documents\MyRepositories\mobilecap\ResultsAnalysis
DataRate	CameraRate	NumFrames	NumMarkers	Units	OrigDataRate	OrigDataStartFrame	OrigNumFrames
100.0	100.0	4	51	mm	100.0	299	341
Frame#	Time	r_knee			r_shank_antsup			r_ankle			r_calc			r_5meta			r_toe			L_knee			L_shank_antsup			L_ankle			L_calc			L_5meta			L_toe			r_sh2			r_sh3			r_sh4			L_sh2			L_sh3			r_thigh1			r_thigh2			r_thigh3			r_thigh4			r_thigh5			L_thigh1			L_thigh2			L_thigh3			L_thigh4			r.ASIS			r.PSIS			L.ASIS			L.PSIS			C7			R_Shoulder			L_Shoulder			R_Sternum			L_Sternum			R_humerus			R_elbow_med			R_elbow_lat			R_forearm			R_wrist_radius			R_wrist_ulna			L_humerus			L_elbow_med			L_elbow_lat			L_forearm			L_wrist_radius			L_wrist_ulna			R_HJC			L_HJC			R_HJC_reg			L_HJC_reg			
		X1	Y1	Z1	X2	Y2	Z2	X3	Y3	Z3	X4	Y4	Z4	X5	Y5	Z5	X6	Y6	Z6	X7	Y7	Z7	X8	Y8	Z8	X9	Y9	Z9	X10	Y10	Z10	X11	Y11	Z11	X12	Y12	Z12	X13	Y13	Z13	X14	Y14	Z14	X15	Y15	Z15	X16	Y16	Z16	X17	Y17	Z17	X18	Y18	Z18	X19	Y19	Z19	X20	Y20	Z20	X21	Y21	Z21	X22	Y22	Z22	X23	Y23	Z23	X24	Y24	Z24	X25	Y25	Z25	X26	Y26	Z26	X27	Y27	Z27	X28	Y28	Z28	X29	Y29	Z29	X30	Y30	Z30	X31	Y31	Z31	X32	Y32	Z32	X33	Y33	Z33	X34	Y34	Z34	X35	Y35	Z35	X36	Y36	Z36	X37	Y37	Z37	X38	Y38	Z38	X39	Y39	Z39	X40	Y40	Z40	X41	Y41	Z41	X42	Y42	Z42	X43	Y43	Z43	X44	Y44	Z44	X45	Y45	Z45	X46	Y46	Z46	X47	Y47	Z47	X48	Y48	Z48	X49	Y49	Z49	X50	Y50	Z50	X51	Y51	Z51	

299	2.98000000	-203.93546	761.08970	-395.93342	-239.89151	723.02773	-367.79737	-323.00649	372.12779	-417.36421	-372.97307	401.56782	-472.42032	-292.16167	226.98343	-408.58655	-232.02899	222.64659	-447.56366	-212.60997	757.22046	-765.28453	-196.74415	674.31261	-778.35435	-281.85063	363.21460	-753.22198	-341.90218	380.45046	-702.64423	-237.59282	223.23529	-759.94797	-186.81008	218.08990	-709.59415	-269.49141	611.62347	-363.54850	-171.39577	707.68082	-399.93775	-199.13895	597.32734	-405.90473	-282.54420	695.04384	-784.26173	-297.64590	573.95983	-786.17973	-134.68835	1056.02772	-466.08317	-117.49600	948.30920	-444.71714	-140.37444	932.82134	-382.75432	-205.30060	1059.74247	-380.11496	-192.07150	946.47082	-366.00322	-196.08219	1079.17245	-765.15116	-190.55007	939.44009	-787.26647	-308.06795	1071.93229	-755.93422	-296.78693	931.17567	-741.82230	-163.26103	1235.95790	-451.25194	-345.91033	1261.69089	-534.31100	-160.72647	1224.02514	-692.37456	-347.15376	1260.84785	-625.53917	-237.68902	1725.55096	-585.34808	-176.13547	1710.26699	-434.91109	-177.74007	1701.00723	-728.56209	-123.99799	1638.09863	-570.97101	-120.35619	1633.07880	-591.44089	-142.27870	1515.03747	-297.96513	-152.62459	1385.81991	-312.99736	-130.96058	1426.87393	-257.20133	-56.79165	1526.37680	-316.62489	-33.60067	1600.69982	-379.25089	5.31706	1586.02423	-362.78925	-114.70032	1515.19922	-853.94073	-102.37032	1378.57372	-830.62413	-78.05368	1414.54476	-888.80977	-17.53498	1523.96453	-809.01138	-10.86006	1599.85408	-738.89723	30.81858	1585.28851	-736.69510	-231.41275	1150.86590	-487.14360	-241.61082	1152.40069	-677.53545	-227.12592	1156.27789	-483.25902	-229.30178	1154.80578	-642.58125	
300	2.99000000	-203.98038	770.87627	-398.75347	-238.51433	732.69062	-369.32165	-319.70408	380.67169	-416.31689	-370.53854	407.50903	-472.14164	-285.18337	237.13974	-403.36249	-225.50066	232.76172	-442.98092	-211.38582	766.92602	-764.07380	-194.36006	684.16659	-775.75242	-279.88728	373.01232	-755.14711	-341.83084	389.43037	-706.51770	-233.95686	233.38667	-760.47498	-185.01197	228.57521	-708.46557	-266.41307	620.40176	-364.41663	-171.00484	717.70553	-404.48129	-197.82407	606.86556	-409.00671	-279.61540	704.71162	-786.38387	-294.24061	583.50943	-788.65730	-136.55396	1065.72887	-471.02707	-118.95931	957.57590	-451.04960	-139.24422	941.74062	-388.27845	-203.44205	1069.07420	-382.55074	-189.98721	955.87695	-368.93084	-195.48514	1088.05656	-764.14639	-189.48295	948.09741	-784.98601	-307.65529	1080.85841	-757.58446	-297.16838	939.97341	-742.35676	-163.89349	1244.18978	-453.08942	-347.39945	1271.76113	-533.01984	-163.53491	1232.82833	-693.50467	-349.42497	1270.62668	-624.35114	-236.96487	1736.02612	-584.80866	-173.97396	1715.35354	-431.40029	-173.71961	1708.38493	-729.45257	-124.78702	1645.07566	-569.05762	-121.38875	1639.85609	-587.45951	-143.79326	1515.11488	-300.69227	-156.26902	1387.17759	-319.88566	-133.80922	1425.80296	-263.04111	-56.50906	1525.23193	-319.08461	-31.25871	1600.91290	-379.35209	7.12269	1584.53130	-363.37225	-117.18519	1519.98728	-852.40694	-108.52789	1383.69685	-828.97876	-83.55391	1418.23286	-887.49124	-19.58625	1526.52923	-808.98050	-10.42207	1602.67186	-739.19980	30.90231	1587.45622	-738.01227	-232.85770	1159.74394	-487.72541	-245.25722	1161.74555	-677.98316	-228.94626	1166.04639	-484.19684	-232.46692	1164.07352	-642.99413	
301	3.00000000	-207.04403	779.73470	-401.40511	-242.25272	740.87222	-371.54471	-314.59843	387.22272	-414.22229	-366.61418	410.29877	-470.76005	-274.40709	245.94834	-396.36628	-215.10041	242.08054	-436.69825	-212.16183	775.86814	-762.59472	-193.49463	693.02833	-773.65302	-276.94301	381.20784	-756.60095	-340.23157	395.86076	-708.74701	-227.75249	243.09571	-762.76965	-179.94335	238.29107	-709.73952	-267.45424	627.86073	-365.70441	-174.37885	727.16712	-406.50960	-198.41709	615.75557	-409.91583	-278.40378	712.74287	-787.98790	-291.67638	591.15727	-790.46538	-138.96125	1074.43946	-475.57414	-121.14422	965.91591	-456.94043	-139.41043	949.80389	-393.55672	-202.43768	1077.70801	-384.75546	-189.09060	964.65723	-371.74873	-195.46850	1096.53000	-763.37844	-189.32704	956.27486	-782.91411	-307.74791	1089.69268	-758.69135	-298.02675	948.76280	-742.45431	-164.32775	1251.94939	-455.41384	-348.38210	1281.95635	-531.46947	-165.94292	1240.09711	-693.89928	-351.28466	1280.39873	-624.12490	-235.87845	1745.63193	-583.94778	-171.88241	1719.78090	-428.37486	-170.10751	1715.20425	-730.10113	-124.88268	1651.66028	-567.25747	-121.19756	1646.95212	-586.95299	-144.52640	1515.10832	-303.69985	-159.44781	1388.62548	-326.56891	-136.23624	1424.78190	-269.03214	-56.32332	1524.03784	-322.09120	-29.21930	1600.75517	-380.26380	8.74731	1583.02240	-364.50440	-119.50528	1524.67981	-850.78610	-115.05632	1388.55386	-827.25920	-89.31762	1421.81145	-886.31036	-21.71371	1528.54228	-808.95116	-9.64936	1604.78726	-739.44725	31.25303	1588.64693	-739.09555	-234.59468	1168.40444	-487.97545	-248.93597	1170.13009	-678.09835	-230.64959	1175.51622	-485.26925	-235.57596	1172.87164	-642.76866	
302	3.01000000	-212.39797	787.44962	-402.92215	-249.70300	747.60921	-373.62516	-308.32106	392.11781	-411.78176	-361.30232	411.37062	-468.97983	-261.98667	253.36019	-389.74957	-202.74496	250.61537	-430.33945	-214.23048	783.96491	-761.71818	-193.89694	700.87760	-772.54901	-273.39193	387.89920	-757.29192	-337.80126	399.91212	-709.83736	-219.53135	252.36679	-765.82866	-172.37292	247.65924	-712.12536	-271.50588	634.23244	-366.84731	-180.34022	735.94507	-406.10753	-200.27380	624.08619	-408.95212	-278.75571	719.18033	-789.07503	-290.07123	597.30000	-791.83926	-141.67812	1081.83609	-479.48342	-124.32954	972.93552	-462.07424	-140.98890	956.67692	-398.22912	-202.09657	1085.33399	-386.79713	-189.62430	972.28750	-374.10688	-195.84533	1104.28997	-762.59776	-189.91722	963.71253	-781.03332	-308.23944	1098.18132	-759.71307	-299.43157	957.21051	-742.83199	-164.88861	1259.13606	-457.99918	-349.20118	1291.61906	-530.03937	-168.08483	1246.25275	-693.77142	-352.79121	1289.70647	-624.70803	-234.58112	1753.74246	-582.61601	-170.03186	1723.69374	-425.88195	-167.27755	1721.46355	-730.29108	-123.81820	1657.98964	-565.35417	-120.00172	1654.70773	-590.33593	-144.57930	1515.09217	-307.01524	-161.78492	1389.79203	-334.09641	-138.12745	1424.00972	-274.93240	-56.23980	1522.99977	-325.53451	-27.45082	1600.39360	-381.89179	10.14032	1581.81527	-366.11652	-121.66338	1529.19949	-849.51784	-121.78365	1393.20234	-825.77710	-95.18735	1425.39155	-885.32284	-23.82158	1530.10825	-808.97419	-8.63994	1606.22643	-739.63938	31.70812	1588.78844	-739.51639	-236.55432	1176.55047	-488.12589	-252.40634	1177.63295	-678.13368	-232.40570	1184.25757	-486.69733	-238.30813	1181.11363	-642.41149	
